<mxfile host="Electron" modified="2023-11-25T13:34:27.737Z" agent="Mozilla/5.0 (Windows NT 10.0; Win64; x64) AppleWebKit/537.36 (KHTML, like Gecko) draw.io/22.1.2 Chrome/114.0.5735.289 Electron/25.9.4 Safari/537.36" etag="YjaDLbfYaphgeDOSFRY9" version="22.1.2" type="device">
  <diagram name="Page-1" id="929967ad-93f9-6ef4-fab6-5d389245f69c">
    <mxGraphModel dx="797" dy="421" grid="1" gridSize="10" guides="1" tooltips="1" connect="1" arrows="1" fold="1" page="1" pageScale="1.5" pageWidth="1169" pageHeight="826" background="none" math="0" shadow="0">
      <root>
        <mxCell id="0" style=";html=1;" />
        <mxCell id="1" style=";html=1;" parent="0" />
        <mxCell id="sLNT8vMcKbHzTjfFRy0S-1" value="便签密码1" style="shape=umlFrame;whiteSpace=wrap;html=1;pointerEvents=0;" parent="1" vertex="1">
          <mxGeometry x="430" y="270" width="600" height="360" as="geometry" />
        </mxCell>
        <mxCell id="sLNT8vMcKbHzTjfFRy0S-3" value=":NoteEditActivity" style="html=1;whiteSpace=wrap;" parent="1" vertex="1">
          <mxGeometry x="600" y="320" width="110" height="50" as="geometry" />
        </mxCell>
        <mxCell id="sLNT8vMcKbHzTjfFRy0S-9" value="" style="endArrow=open;endFill=1;endSize=12;html=1;rounded=0;" parent="1" edge="1">
          <mxGeometry width="160" relative="1" as="geometry">
            <mxPoint x="460" y="330" as="sourcePoint" />
            <mxPoint x="600" y="330" as="targetPoint" />
          </mxGeometry>
        </mxCell>
        <mxCell id="sLNT8vMcKbHzTjfFRy0S-10" value="1.点击设置密码" style="text;html=1;align=center;verticalAlign=middle;resizable=0;points=[];autosize=1;strokeColor=none;fillColor=none;" parent="1" vertex="1">
          <mxGeometry x="465" y="308" width="110" height="30" as="geometry" />
        </mxCell>
        <mxCell id="sLNT8vMcKbHzTjfFRy0S-11" value="" style="endArrow=open;endFill=1;endSize=12;html=1;rounded=0;" parent="1" edge="1">
          <mxGeometry width="160" relative="1" as="geometry">
            <mxPoint x="600" y="360" as="sourcePoint" />
            <mxPoint x="440" y="360" as="targetPoint" />
          </mxGeometry>
        </mxCell>
        <mxCell id="sLNT8vMcKbHzTjfFRy0S-12" value="6.便签锁定" style="edgeLabel;html=1;align=center;verticalAlign=middle;resizable=0;points=[];" parent="sLNT8vMcKbHzTjfFRy0S-11" vertex="1" connectable="0">
          <mxGeometry x="0.2094" y="1" relative="1" as="geometry">
            <mxPoint x="27" y="-11" as="offset" />
          </mxGeometry>
        </mxCell>
        <mxCell id="sLNT8vMcKbHzTjfFRy0S-13" value="" style="endArrow=open;endFill=1;endSize=12;html=1;rounded=0;entryX=0;entryY=0.25;entryDx=0;entryDy=0;exitX=1;exitY=0.25;exitDx=0;exitDy=0;" parent="1" source="sLNT8vMcKbHzTjfFRy0S-3" target="sLNT8vMcKbHzTjfFRy0S-14" edge="1">
          <mxGeometry width="160" relative="1" as="geometry">
            <mxPoint x="710" y="344.57" as="sourcePoint" />
            <mxPoint x="870" y="344.57" as="targetPoint" />
          </mxGeometry>
        </mxCell>
        <mxCell id="sLNT8vMcKbHzTjfFRy0S-14" value=":WorkingNote" style="html=1;whiteSpace=wrap;" parent="1" vertex="1">
          <mxGeometry x="830" y="320" width="110" height="50" as="geometry" />
        </mxCell>
        <mxCell id="sLNT8vMcKbHzTjfFRy0S-15" value="2.传递输入的密码" style="text;html=1;align=center;verticalAlign=middle;resizable=0;points=[];autosize=1;strokeColor=none;fillColor=none;" parent="1" vertex="1">
          <mxGeometry x="700" y="308" width="120" height="30" as="geometry" />
        </mxCell>
        <mxCell id="sLNT8vMcKbHzTjfFRy0S-16" value="" style="endArrow=open;endFill=1;endSize=12;html=1;rounded=0;exitX=0;exitY=0.75;exitDx=0;exitDy=0;entryX=1;entryY=0.75;entryDx=0;entryDy=0;" parent="1" source="sLNT8vMcKbHzTjfFRy0S-14" target="sLNT8vMcKbHzTjfFRy0S-3" edge="1">
          <mxGeometry width="160" relative="1" as="geometry">
            <mxPoint x="700" y="400" as="sourcePoint" />
            <mxPoint x="860" y="400" as="targetPoint" />
          </mxGeometry>
        </mxCell>
        <mxCell id="sLNT8vMcKbHzTjfFRy0S-17" value=":Notes" style="html=1;whiteSpace=wrap;" parent="1" vertex="1">
          <mxGeometry x="830" y="550" width="110" height="50" as="geometry" />
        </mxCell>
        <mxCell id="sLNT8vMcKbHzTjfFRy0S-18" value="" style="endArrow=open;endFill=1;endSize=12;html=1;rounded=0;exitX=0.75;exitY=1;exitDx=0;exitDy=0;entryX=0.75;entryY=0;entryDx=0;entryDy=0;" parent="1" source="sLNT8vMcKbHzTjfFRy0S-14" target="sLNT8vMcKbHzTjfFRy0S-17" edge="1">
          <mxGeometry width="160" relative="1" as="geometry">
            <mxPoint x="650" y="490" as="sourcePoint" />
            <mxPoint x="810" y="490" as="targetPoint" />
          </mxGeometry>
        </mxCell>
        <mxCell id="sLNT8vMcKbHzTjfFRy0S-19" value="3.保存密码" style="text;html=1;align=center;verticalAlign=middle;resizable=0;points=[];autosize=1;strokeColor=none;fillColor=none;rotation=90;" parent="1" vertex="1">
          <mxGeometry x="885" y="430" width="80" height="30" as="geometry" />
        </mxCell>
        <mxCell id="sLNT8vMcKbHzTjfFRy0S-20" value="" style="endArrow=open;endFill=1;endSize=12;html=1;rounded=0;exitX=0.25;exitY=0;exitDx=0;exitDy=0;entryX=0.25;entryY=1;entryDx=0;entryDy=0;" parent="1" source="sLNT8vMcKbHzTjfFRy0S-17" target="sLNT8vMcKbHzTjfFRy0S-14" edge="1">
          <mxGeometry width="160" relative="1" as="geometry">
            <mxPoint x="750" y="440" as="sourcePoint" />
            <mxPoint x="910" y="440" as="targetPoint" />
          </mxGeometry>
        </mxCell>
        <mxCell id="sLNT8vMcKbHzTjfFRy0S-21" value="4.回传保存成功信息" style="text;html=1;align=center;verticalAlign=middle;resizable=0;points=[];autosize=1;strokeColor=none;fillColor=none;rotation=-90;" parent="1" vertex="1">
          <mxGeometry x="770" y="450" width="130" height="30" as="geometry" />
        </mxCell>
        <mxCell id="sLNT8vMcKbHzTjfFRy0S-22" value="5.回传保存成功" style="text;html=1;align=center;verticalAlign=middle;resizable=0;points=[];autosize=1;strokeColor=none;fillColor=none;" parent="1" vertex="1">
          <mxGeometry x="710" y="330" width="110" height="30" as="geometry" />
        </mxCell>
      </root>
    </mxGraphModel>
  </diagram>
</mxfile>
